<svg xmlns="http://www.w3.org/2000/svg" width="140" height="140" viewBox="0 0 140 140">
    <g fill="none" fill-rule="evenodd">
        <path fill="#DE554B" d="M13 13.596V49.53c0 40.677 20.841 74.274 55.749 89.87l1.34.599 1.341-.598C106.226 123.856 127 90.26 127 49.53V13.575L69.067 0 13 13.596z"/>
        <path fill="#FEB447" d="M107.28 82.842l-.157-.064c-10.064-4.17-18.064-.486-23.146 3.547 2.49-6.35 3.102-12.066 3.212-13.343.773-1.556 1.832-2.502 3.234-2.89 3.748-1.04 8.627 2.2 8.675 2.233l1.313.882 7.728-19.087L83.988 30.64l-19.17 2.183c-.419.065-.833.143-1.248.223-3.708-4.795-8.4-8.737-13.823-11.014l20.197-4.793 42.34 10.044.411 25.703c0 10.686-1.875 20.747-5.415 29.855zM70.074 55.704c.694 7.38-.135 25.2-22.624 31.695L35.899 67.015c.907-9.25 5.206-17.447 11.635-23.243l.22.293c5.532 7.38 5.543 15.202.028 22.026l-.803.994 1.994 1.598.803-.993c6.317-7.818 6.327-16.75.028-25.15l-.31-.413a34.146 34.146 0 0113.071-6.263c4.053 5.612 6.82 12.527 7.509 19.84zm19.93-15.425c-2.712 2.207-6.087 4.955-5.349 17.039.468 7.706.099 13.82.017 15.002l-.004.01-.013.242c-.005.08-.503 8.037-4.325 15.873-4.93 10.112-12.86 15.28-23.577 15.37L48.74 89.674c16.516-5.009 25.433-17.736 23.883-34.208-.64-6.795-3.26-13.993-7.393-20.125l17.841-2.03 7.074 6.876c-.048.029-.096.055-.14.092zm5.226 13.588a4.487 4.487 0 004.572-4.29l5.323 5.174-5.939 14.667c-2.012-1.079-5.928-2.756-9.44-1.783a7.135 7.135 0 00-2.347 1.136c.08-2.804.098-6.882-.19-11.608-.658-10.781 1.921-12.88 4.414-14.91.122-.1.216-.218.29-.345l7.777 7.56-8.876-.167c-.046 2.476 1.93 4.52 4.416 4.566zM69.956 122.41c-26.517-12.26-42.31-38.123-42.31-69.422v-25.71l17.36-4.12c5.944 1.488 11.486 5.293 15.856 10.518-15.031 4.077-26.132 17.33-27.55 33.509l-.034.393 21.975 38.775.735.01c.161.002.317.003.476.003 11.038 0 18.134-5.008 22.689-11.159l.129.082.69-1.07c.026-.04 2.632-4.035 7.187-7.12 5.974-4.048 12.361-4.708 18.981-1.968l.173.071c-7.012 16.369-19.55 29.445-36.357 37.208zM69.944 12L22.528 23.251v29.736c0 33.779 17.34 61.648 46.386 74.55l1.042.463 1.042-.463c29.314-13.022 46.815-40.89 46.815-74.59l-.473-29.703L69.944 12z"/>
    </g>
</svg>
