<svg width="24" height="24" viewBox="0 0 24 24" fill="none" xmlns="http://www.w3.org/2000/svg">
<g clip-path="url(#clip0)">
<path d="M23.0949 1.9064C22.4907 1.30204 21.7667 1 20.9232 1H3.07926C2.23547 1 1.51164 1.30215 0.907288 1.9064C0.303041 2.51048 0.000999451 3.23442 0.000999451 4.07804V21.9218C0.000999451 22.7653 0.302986 23.4894 0.907288 24.0935C1.51164 24.6977 2.23563 25 3.07926 25H20.923C21.7663 25 22.4906 24.6977 23.0948 24.0935C23.6991 23.4894 24.0009 22.7653 24.0009 21.9218V4.07804C24.0008 3.23425 23.6991 2.5107 23.0949 1.9064ZM8.61845 9.64832C9.56108 8.737 10.6939 8.28112 12.0169 8.28112C13.35 8.28112 14.488 8.737 15.4308 9.64832C16.3737 10.5598 16.8448 11.6615 16.8448 12.9531C16.8448 14.2446 16.3737 15.3463 15.4308 16.2575C14.488 17.1692 13.3504 17.625 12.0169 17.625C10.694 17.625 9.56124 17.1688 8.61845 16.2575C7.67561 15.3462 7.20424 14.2446 7.20424 12.9531C7.20424 11.6615 7.67561 10.5599 8.61845 9.64832ZM21.2826 21.2814C21.2826 21.5521 21.1885 21.7785 21.0012 21.9609C20.8133 22.1432 20.5897 22.2343 20.3291 22.2343H3.62621C3.35541 22.2343 3.12868 22.1432 2.94655 21.9609C2.76414 21.7789 2.67302 21.5521 2.67302 21.2814V11.1561H4.87607C4.66784 11.8124 4.56369 12.4948 4.56369 13.203C4.56369 15.2034 5.29277 16.9089 6.75109 18.3206C8.20958 19.7318 9.96475 20.4377 12.0168 20.4377C13.371 20.4377 14.6209 20.1147 15.7671 19.4689C16.913 18.8227 17.8186 17.9453 18.4858 16.8359C19.1525 15.7264 19.4859 14.5154 19.4859 13.203C19.4859 12.4949 19.3813 11.8126 19.1731 11.1561H21.2827V21.2815H21.2826V21.2814ZM21.2826 7.32793C21.2826 7.63002 21.1784 7.88527 20.9697 8.09357C20.7615 8.30202 20.5064 8.40611 20.2042 8.40611H17.4855C17.1836 8.40611 16.9281 8.30197 16.7199 8.09357C16.5116 7.88527 16.4075 7.63002 16.4075 7.32793V4.75004C16.4075 4.45834 16.5116 4.20578 16.7199 3.99217C16.9282 3.77868 17.1836 3.6718 17.4855 3.6718H20.2042C20.5064 3.6718 20.7616 3.77863 20.9697 3.99217C21.1784 4.20578 21.2826 4.45834 21.2826 4.75004V7.32793Z" fill="white"/>
</g>
<defs>
<clipPath id="clip0">
<rect width="24" height="24" fill="white"/>
</clipPath>
</defs>
</svg>
