<svg width="24" height="24" viewBox="0 0 24 24" fill="none" xmlns="http://www.w3.org/2000/svg">
<g clip-path="url(#clip0)">
<path d="M22.6796 2.32019C21.7998 1.44012 20.7397 1 19.5002 1H4.50013C3.26066 1 2.20059 1.44012 1.32035 2.32019C0.440277 3.20043 0.00015831 4.26044 0.00015831 5.49997V20.4999C0.00015831 21.7393 0.440277 22.7994 1.32035 23.6797C2.20059 24.5599 3.26066 25 4.50013 25H19.5001C20.7395 25 21.7996 24.5599 22.6795 23.6797C23.5597 22.7994 23.9998 21.7394 23.9998 20.4999V5.49997C23.9998 4.26044 23.5596 3.20026 22.6796 2.32019ZM7.31257 21.0936H3.70319V10.2498H7.31257V21.0936ZM6.98465 8.2422C6.60971 8.60159 6.11486 8.78132 5.50022 8.78132H5.48446C4.89077 8.78132 4.40917 8.60159 4.03927 8.2422C3.66931 7.8828 3.48444 7.43754 3.48444 6.9063C3.48444 6.36466 3.67467 5.91666 4.05476 5.56241C4.43511 5.20827 4.92722 5.03112 5.5313 5.03112C6.13544 5.03112 6.61983 5.20827 6.98448 5.56241C7.34902 5.91666 7.53657 6.36466 7.54692 6.9063C7.54686 7.43732 7.35959 7.88258 6.98465 8.2422ZM20.297 21.0936H16.6876V15.2968C16.6876 13.6616 16.0836 12.8438 14.8752 12.8438C14.4169 12.8438 14.0313 12.9714 13.7189 13.2266C13.4062 13.4817 13.1719 13.7916 13.0158 14.1565C12.9428 14.3438 12.9064 14.6354 12.9064 15.0311V21.0935H9.29705C9.3283 14.552 9.3283 10.9373 9.29705 10.2497H12.9064V11.7807C13.6653 10.5941 14.743 9.99961 16.1409 9.99961C17.3909 9.99961 18.3962 10.4112 19.1566 11.2339C19.917 12.0569 20.2972 13.2706 20.2972 14.8743V21.0936H20.297Z" fill="#F2F2F2"/>
</g>
<defs>
<clipPath id="clip0">
<rect width="24" height="24" fill="white"/>
</clipPath>
</defs>
</svg>
