<svg width="24" height="24" viewBox="0 0 24 24" fill="none" xmlns="http://www.w3.org/2000/svg">
<g clip-path="url(#clip0)">
<path d="M23.6796 0.320191C22.7998 -0.559882 21.7397 -1 20.5002 -1H5.50013C4.26066 -1 3.20059 -0.559882 2.32035 0.320191C1.44028 1.20043 1.00016 2.26044 1.00016 3.49997V18.4999C1.00016 19.7393 1.44028 20.7994 2.32035 21.6797C3.20059 22.5599 4.26066 23 5.50013 23H20.5001C21.7395 23 22.7996 22.5599 23.6795 21.6797C24.5597 20.7994 24.9998 19.7394 24.9998 18.4999V3.49997C24.9998 2.26044 24.5596 1.20026 23.6796 0.320191ZM19.3595 8.23444C19.3699 8.32819 19.3752 8.46856 19.3752 8.65639C19.3752 9.53143 19.2475 10.409 18.9924 11.289C18.7373 12.1694 18.3466 13.0131 17.8204 13.8204C17.2947 14.6275 16.6671 15.3413 15.938 15.961C15.2087 16.5805 14.3339 17.0756 13.3128 17.4451C12.2922 17.8151 11.1983 18.0002 10.0317 18.0002C8.21937 18.0002 6.5423 17.5103 5.00058 16.5315C5.25057 16.5626 5.51113 16.5783 5.78181 16.5783C7.29229 16.5783 8.65167 16.1096 9.86005 15.1718C9.15182 15.1617 8.5189 14.9431 7.96166 14.5156C7.40426 14.0885 7.01635 13.5469 6.79755 12.8907C7.06829 12.9322 7.27138 12.9529 7.40678 12.9529C7.63592 12.9529 7.90163 12.9113 8.20361 12.8282C7.44323 12.6821 6.8027 12.3049 6.28186 11.6955C5.7609 11.086 5.50051 10.3908 5.50051 9.60958V9.57833C6.05244 9.83856 6.57328 9.97395 7.06293 9.98452C6.11499 9.34897 5.64105 8.43764 5.64105 7.25017C5.64105 6.66677 5.79199 6.11474 6.09409 5.59389C6.91691 6.60438 7.91711 7.41156 9.09403 8.0157C10.2711 8.61978 11.5316 8.95849 12.8753 9.03133C12.8233 8.83343 12.7972 8.58333 12.7972 8.28134C12.7972 7.37495 13.1175 6.60165 13.7582 5.96095C14.3987 5.32031 15.1722 4.99988 16.0783 4.99988C17.0369 4.99988 17.8339 5.34374 18.4692 6.03128C19.188 5.89588 19.8862 5.63012 20.5631 5.23444C20.3028 6.03631 19.8181 6.64576 19.1101 7.06245C19.787 6.96854 20.417 6.79155 21.0002 6.53116C20.5628 7.19779 20.0157 7.76548 19.3595 8.23444Z" fill="#F2F2F2"/>
</g>
<defs>
<clipPath id="clip0">
<rect width="24" height="24" fill="white"/>
</clipPath>
</defs>
</svg>
