<?xml version="1.0" encoding="utf-8"?>
<!-- Generator: Adobe Illustrator 22.1.0, SVG Export Plug-In . SVG Version: 6.00 Build 0)  -->
<svg version="1.1" id="Layer_1" xmlns="http://www.w3.org/2000/svg" xmlns:xlink="http://www.w3.org/1999/xlink" x="0px" y="0px"
	 viewBox="0 0 140 140" style="enable-background:new 0 0 140 140;" xml:space="preserve">
<style type="text/css">
	.st0{fill:#086C5C;}
	.st1{fill:#D3E9F5;}
	.st2{filter:url(#Adobe_OpacityMaskFilter);}
	.st3{fill:#FFFFFF;}
	.st4{mask:url(#mask-2_2_);fill:#D3E9F5;}
</style>
<g>
	<path class="st0" d="M119.8,19.1c-0.4,0-27.6,0-48.9-17.4L68.8,0l-2,1.8C47.7,19.5,18.5,19.1,18.3,19.1L15,19l2.3,55
		c1.2,27.1,46.9,63.1,48.8,64.6L68,140l1.9-1.4c2-1.5,48.8-37,50.2-65.2L123,19C123,19,119.8,19.1,119.8,19.1z"/>
	<path class="st0" d="M-1,0"/>
</g>
<g id="Page-1">
	<g id="Slytherin-crest---house-colour" transform="translate(-668.000000, -162.000000)">
		<g id="Hufflepuff_expanded" transform="translate(668.000000, 161.000000)">
			<polygon id="Fill-1" class="st1" points="61.9,47.4 63.9,40.5 54.6,45.3 			"/>
			<g id="Group-4" transform="translate(0.000000, 0.750000)">
				<g id="Clip-3">
				</g>
				<defs>
					<filter id="Adobe_OpacityMaskFilter" filterUnits="userSpaceOnUse" x="23.5" y="11.8" width="89.5" height="116.8">
						<feColorMatrix  type="matrix" values="1 0 0 0 0  0 1 0 0 0  0 0 1 0 0  0 0 0 1 0"/>
					</filter>
				</defs>
				<mask maskUnits="userSpaceOnUse" x="23.5" y="11.8" width="89.5" height="116.8" id="mask-2_2_">
					<g class="st2">
						<polygon id="path-1_2_" class="st3" points="23.5,11.8 113,11.8 113,128.7 23.5,128.7 						"/>
					</g>
				</mask>
				<path id="Fill-2" class="st4" d="M105.5,72.8c-0.1,1.5-0.4,3.1-0.8,4.8c-1.2-1.9-3-3.6-5.2-4.7c-4.1-2-8.8-1.8-13.1,0.8
					L65.2,88.5c-5.1,3.3-9.4,5.3-13.9-0.7c3.7-2.8,17.1-13.1,28.8-21.2c0.4-0.3,0.9-0.6,1.3-1c0.7-0.5,1.4-1,1.9-1.4
					c3.5-2.1,5.9-6.1,6.5-10.6c0.7-5.2-1.1-10.3-5-14.3l-0.1-0.1c-8-6.9-14.2-10.9-14.5-11.1l-0.6-0.4L47.3,39.2l-0.1,0.6
					c-0.2,0.9-0.4,6.9-0.4,9.5l0,0.9l4.2,1.7c-1.5,0.7-3.1,1.5-4.2,3l-5.6-0.1l0,2.6l4.5,0.1c-0.3,1-0.4,2.3-0.3,3.7l0.1,1.3
					l2.6-0.2l-0.1-1.3c-0.3-4.7,1.7-5.8,5.2-7.2l1.2-0.5l0-0.1l7.1,2.9l9.3-7.3c0.5,0.7,1.1,1.8,1,3c-0.1,1-0.6,1.9-1.7,2.7
					L39.3,76.7c-1.9,1.2-4.4,3.4-6,6.3c-1.7-3.5-2.6-6.8-2.7-9.6l-1.7-40.5c6.9-0.3,25.3-2.3,39.4-14.2
					c15.2,11.5,32.7,13.8,39.3,14.2L105.5,72.8z M85.9,105.8c-7.3,7.6-14.5,13.8-17.7,16.3c-2.4-2-7.4-6.1-13-11.5
					c0.6,0.1,1.3,0.1,2,0.1c2.1,0,4.4-0.4,6.7-1.3c5.7-2,20.8-13.6,21.4-14.1l1-0.8l-1.6-2l-1,0.8c-0.2,0.1-15.4,11.8-20.8,13.7
					c-4.4,1.6-8.2,1.5-11.7-0.3c-0.4-0.4-0.7-0.7-1.1-1.1c-7-7.2-12.2-13.9-15.5-19.8c1.2-4.1,5.6-7,5.9-7.1l30.8-22.5
					c1.7-1.3,2.6-2.8,2.8-4.5c0.2-3.1-2.3-5.7-2.4-5.8L71,45.1L61,53l-11.6-4.7c0.1-3.1,0.2-6.2,0.3-7.5l19.9-10.1
					c1.7,1.2,7.1,4.8,13.5,10.4c3.3,3.4,4.8,7.7,4.2,12.1c-0.5,3.8-2.5,7-5.3,8.8c-0.6,0.4-1.4,1-2.1,1.5c-0.4,0.3-0.9,0.7-1.2,0.9
					c-13.6,9.4-29.7,21.9-29.8,22l-0.9,0.7l0.6,1c2.9,4.5,6.1,5.9,9.1,5.9c3.5,0,6.8-2.1,9-3.5l21.2-14.7c4.7-2.8,8.6-1.6,10.5-0.7
					c2.5,1.3,4.4,3.5,5.2,5.9C100.5,88.3,94.6,96.7,85.9,105.8L85.9,105.8z M110.3,27.7L110.3,27.7c-0.6,0-23-0.1-40.5-14.5
					l-1.7-1.4l-1.6,1.5c-15.8,14.7-40,14.4-40.2,14.4l-2.7-0.1l1.9,45.9c1,22.6,39.6,52.6,41.3,53.9l1.6,1.2l1.6-1.2
					c1.6-1.3,39.6-30.9,40.8-54.4l2.4-45.4L110.3,27.7z"/>
			</g>
		</g>
	</g>
</g>
</svg>
