<?xml version="1.0" encoding="iso-8859-1"?>
<!-- Generator: Adobe Illustrator 19.0.0, SVG Export Plug-In . SVG Version: 6.00 Build 0)  -->
<svg version="1.1" id="Capa_1" xmlns="http://www.w3.org/2000/svg" xmlns:xlink="http://www.w3.org/1999/xlink" x="0px" y="0px"
	 viewBox="0 0 464 464" style="enable-background:new 0 0 464 464;" xml:space="preserve">
<g>
	<g>
		<path d="M422.32,403.096l-48.68-62.584c15.774-4.713,29.4-14.801,38.512-28.512c11.464-19.816,6.28-44,1.264-67.36
			c-3.033-12-4.848-24.276-5.416-36.64c0.566-12.375,2.38-24.662,5.416-36.672c4.984-23.376,10.2-47.544-1.264-67.328
			c-11.872-20.512-35.776-28.104-58.896-35.432c-11.509-3.171-22.655-7.536-33.256-13.024c-9.62-6.24-18.552-13.48-26.648-21.6
			C276.2,18.024,256.752,0,232,0s-44.2,18.024-61.36,33.936c-8.093,8.122-17.023,15.365-26.64,21.608
			c-10.6,5.477-21.743,9.831-33.248,12.992c-23.12,7.328-47.024,14.92-58.896,35.432c-11.464,19.816-6.28,44-1.264,67.36
			C53.625,183.339,55.437,195.625,56,208c-0.566,12.375-2.38,24.662-5.416,36.672c-4.984,23.376-10.2,47.544,1.264,67.328
			c9.124,13.716,22.765,23.801,38.552,28.504l-48.72,62.584c-2.712,3.488-2.083,8.514,1.406,11.226
			c1.676,1.303,3.8,1.886,5.906,1.622l57.2-7.144l14.12,49.408c0.827,2.896,3.211,5.082,6.168,5.656
			c0.501,0.095,1.01,0.144,1.52,0.144c2.47,0.002,4.803-1.138,6.32-3.088l51.088-65.712c12.572,12.239,29.086,19.612,46.592,20.8
			c17.506-1.188,34.02-8.561,46.592-20.8l51.088,65.688c1.512,1.959,3.845,3.108,6.32,3.112c0.51,0,1.019-0.049,1.52-0.144
			c2.957-0.574,5.341-2.76,6.168-5.656l14.12-49.4l57.2,7.144c4.384,0.55,8.384-2.558,8.934-6.942
			C424.206,406.896,423.623,404.772,422.32,403.096z M131.36,438.648L119.688,397.8c-1.085-3.789-4.769-6.223-8.68-5.736l-44.8,5.6
			l40.152-51.616l4.424,1.416c11.494,3.163,22.626,7.517,33.216,12.992c9.62,6.24,18.552,13.48,26.648,21.6l2.752,2.544
			L131.36,438.648z M232,400c-18.48,0-34.024-14.4-50.488-29.664c-8.957-8.949-18.851-16.906-29.512-23.736
			c-11.599-6.072-23.809-10.899-36.424-14.4c-21.144-6.712-41.12-13.048-49.888-28.2c-8.368-14.472-4.048-34.64,0.536-56
			c3.299-13.099,5.235-26.503,5.776-40c-0.538-13.497-2.471-26.901-5.768-40c-4.584-21.352-8.904-41.52-0.536-56
			c8.8-15.152,28.744-21.488,49.888-28.2c12.613-3.502,24.819-8.329,36.416-14.4c10.658-6.83,20.55-14.788,29.504-23.736
			C197.976,30.4,213.52,16,232,16s34.024,14.4,50.488,29.664C291.445,54.613,301.339,62.57,312,69.4
			c11.599,6.072,23.809,10.899,36.424,14.4c21.144,6.712,41.12,13.048,49.888,28.2c8.368,14.472,4.048,34.64-0.536,56
			c-3.299,13.099-5.235,26.503-5.776,40c0.538,13.497,2.471,26.901,5.768,40c4.584,21.352,8.904,41.52,0.536,56
			c-8.8,15.152-28.744,21.488-49.888,28.2c-12.613,3.502-24.819,8.329-36.416,14.4c-10.658,6.83-20.55,14.788-29.504,23.736
			C266.024,385.6,250.48,400,232,400z M353.032,392.064c-3.911-0.487-7.595,1.947-8.68,5.736l-11.712,40.848l-42.032-54.04
			l2.752-2.544c8.093-8.122,17.023-15.365,26.64-21.608c10.6-5.477,21.743-9.831,33.248-12.992l4.424-1.416l40.16,51.616
			L353.032,392.064z"/>
	</g>
</g>
<g>
	<g>
		<path d="M232,64c-79.529,0-144,64.471-144,144s64.471,144,144,144s144-64.471,144-144C375.908,128.509,311.491,64.093,232,64z
			 M232,336c-70.692,0-128-57.308-128-128S161.308,80,232,80s128,57.308,128,128C359.916,278.658,302.658,335.916,232,336z"/>
	</g>
</g>
<g>
	<g>
		<path d="M324.304,174.584c-3.01-4.135-7.814-6.582-12.928-6.584H262.4l-15.2-46.616c-2.759-8.395-11.801-12.963-20.196-10.204
			c-4.829,1.587-8.617,5.375-10.204,10.204L201.64,168h-49.016c-8.837-0.004-16.004,7.155-16.008,15.992
			c-0.003,5.12,2.445,9.931,6.584,12.944l39.648,28.8l-15.144,46.616c-2.732,8.404,1.867,17.431,10.27,20.162
			c4.873,1.584,10.209,0.738,14.354-2.274L232,261.448l39.656,28.8c5.586,4.15,13.23,4.15,18.816,0
			c5.669-4.029,8.029-11.297,5.808-17.888l-15.144-46.624l39.648-28.8C327.929,191.736,329.505,181.728,324.304,174.584z
			 M267.024,216.216c-2.806,2.039-3.979,5.654-2.904,8.952l16.944,52.144l-44.36-32.224c-2.803-2.035-6.597-2.035-9.4,0
			l-44.36,32.224l16.936-52.144c1.071-3.296-0.101-6.906-2.904-8.944L152.624,184h54.824c3.466,0,6.537-2.232,7.608-5.528
			L232,126.328l16.944,52.136c1.071,3.296,4.142,5.528,7.608,5.528L311.376,184L267.024,216.216z"/>
	</g>
</g>
<g>
</g>
<g>
</g>
<g>
</g>
<g>
</g>
<g>
</g>
<g>
</g>
<g>
</g>
<g>
</g>
<g>
</g>
<g>
</g>
<g>
</g>
<g>
</g>
<g>
</g>
<g>
</g>
<g>
</g>
</svg>
