<svg viewBox="-30 0 512 512" xmlns="http://www.w3.org/2000/svg"><path d="m0 0 31.800781 448.101562 194.398438 63.898438 194.398437-63.898438 31.800782-448.101562zm0 0" fill="#ff7816"/><path d="m452.398438 0-31.800782 448.101562-194.398437 63.898438v-512zm0 0" fill="#ff4b00"/><path d="m367.5 136h-222.300781l5.398437 75h211.503906l-12.902343 181.597656-123 41.101563-123-41.101563-4.199219-60.597656h60l1.199219 16.5 66 21.898438 66-21.898438 5.398437-77.5h-203.097656l-13.800781-195h291zm0 0" fill="#ececf1"/><g fill="#e2e2e7"><path d="m362.101562 211-12.902343 181.597656-123 41.101563v-63.300781l66-21.898438 5.398437-77.5h-71.398437v-60zm0 0"/><path d="m371.699219 76-4.199219 60h-141.300781v-60zm0 0"/></g></svg>