<svg xmlns="http://www.w3.org/2000/svg" xmlns:xlink="http://www.w3.org/1999/xlink" viewBox="0 0 66 61" fill="#fff" fill-rule="evenodd" stroke="#000" stroke-linecap="round" stroke-linejoin="round"><use xlink:href="#A" x=".5" y=".5"/><symbol id="A" overflow="visible"><g stroke="none" fill-rule="nonzero"><path d="M24.329 28.026A15.02 15.02 0 0 1 31.838 0a15.02 15.02 0 0 1 7.509 28.026l-4.523-7.832c2.342-1.352 3.484-4.109 2.784-6.721s-3.067-4.428-5.771-4.428-5.071 1.816-5.771 4.429.442 5.369 2.784 6.721z" fill="#ff0101"/><path d="M56.492 31.662a15.02 15.02 0 0 1-7.509 28.026 15.02 15.02 0 0 1-7.509-28.025l4.523 7.832c-2.342 1.352-3.484 4.109-2.784 6.721s3.067 4.429 5.771 4.429 5.072-1.816 5.771-4.428-.442-5.369-2.784-6.721z" fill="#0101ff"/><path d="M30.038 44.668a15.02 15.02 0 0 1-28.026 7.51 15.02 15.02 0 0 1 2.387-18.13 15.02 15.02 0 0 1 18.13-2.387l-4.521 7.833c-2.342-1.352-5.3-.963-7.212.95s-2.302 4.871-.95 7.213 4.109 3.484 6.721 2.784 4.429-3.067 4.429-5.771z" fill="#01ff01"/></g></symbol></svg>