<svg width="90" height="90" viewBox="0 0 90 90" fill="none" xmlns="http://www.w3.org/2000/svg">
<path d="M45 90C69.8528 90 90 69.8528 90 45C90 20.1472 69.8528 0 45 0C20.1472 0 0 20.1472 0 45C0 69.8528 20.1472 90 45 90Z" fill="#F47421"/>
<path d="M44.9998 66.8248C57.0534 66.8248 66.8248 57.0534 66.8248 44.9998C66.8248 32.9462 57.0534 23.1748 44.9998 23.1748C32.9462 23.1748 23.1748 32.9462 23.1748 44.9998C23.1748 57.0534 32.9462 66.8248 44.9998 66.8248Z" stroke="white" stroke-width="8.55"/>
<path d="M14.3995 53.4377C19.0595 53.4377 22.8371 49.6601 22.8371 45.0001C22.8371 40.3401 19.0595 36.5625 14.3995 36.5625C9.73956 36.5625 5.96191 40.3401 5.96191 45.0001C5.96191 49.6601 9.73956 53.4377 14.3995 53.4377Z" fill="#F47421"/>
<path d="M62 45H72Z" fill="black"/>
<path d="M62 45H72" stroke="#F47421" stroke-width="3.2378"/>
<path d="M14.3991 51.0071C17.7169 51.0071 20.4065 48.3175 20.4065 44.9996C20.4065 41.6818 17.7169 38.9922 14.3991 38.9922C11.0812 38.9922 8.3916 41.6818 8.3916 44.9996C8.3916 48.3175 11.0812 51.0071 14.3991 51.0071Z" fill="white"/>
</svg>
