<svg xmlns="http://www.w3.org/2000/svg" width="140" height="140" viewBox="0 0 140 140">
    <g fill="none" fill-rule="evenodd">
        <path fill="#FCB542" d="M125.855 13.743l-4.146 1.516c-.404.147-10.022 3.506-23.033-5.444C80.222-2.88 60.598-3.272 43.425 8.705c-12.13 8.462-24.44 6.425-24.553 6.405l-3.61-.66-.09 3.687c-.057 2.366-1.332 58.116 4.026 73.391 7.407 21.118 19.98 27.978 32.138 34.611 6.2 3.382 12.058 6.578 17.086 11.631l2.22 2.23 2.22-2.23c5.008-5.03 10.737-8.213 16.804-11.583 11.94-6.633 24.288-13.492 31.71-34.659 5.354-15.26 4.603-70.997 4.57-73.362l-.09-4.423z"/>
        <path fill="#212028" d="M108.277 80.995a26.92 26.92 0 00-3.554-6.926c-2.723-3.846-8.407-9.69-18.802-12.188 5.082-1.318 9.035-4.416 9.508-12.617l.107-1.861-1.738.572c-.067.02-7.038 1.887-22.937-8.34-3.897-2.527-10.05-4.477-16.075-2.767a5.81 5.81 0 00.097-1.043c0-3.168-2.525-5.745-5.627-5.745-3.104 0-5.628 2.577-5.628 5.745 0 2.53 1.611 4.678 3.84 5.442-2.624 2.651-4.707 6.292-6.145 10.826a27.918 27.918 0 00-.856 3.412l-.185.464c-5.828 14.628-1.975 22.739.838 28.66 2.477 5.212 4.01 8.47-1.03 13.908-2.414-3.237-4.564-7.236-6.346-12.398-3.46-10.02-3.533-45.287-3.472-56.001 4.067.508 11.451.198 20.103-5.849 6.449-4.506 13.376-6.99 20.039-7.186 6.663.196 13.59 2.68 20.04 7.186 8.652 6.048 16.035 6.358 20.102 5.849.054 9.309.004 37.14-2.279 50.857zm-24.77 31.11c-2.016 1.138-4.057 2.297-6.078 3.572 3.213-8.73 1.99-18.497-1.111-24.05-2.4-4.297-6.877-7.807-13.3-10.439-.81-1.466-3.769-7.333-2.052-11.86.9-2.375 3.033-4.064 6.337-5.019 2.106-.609 4.384-.904 6.68-1.1v.022h1.25c16.3 0 24.204 7.726 27.465 12.332 2.714 3.831 3.969 7.807 4.223 11.03-5.438 15.355-14.171 20.293-23.413 25.512zm-16.885-50.25c-4.1 1.185-6.787 3.39-7.987 6.552-1.534 4.047-.202 8.67 1.022 11.583-7.18-2.776-12.502-7.054-15.147-12.228-1.26-2.47-1.88-5.124-1.905-7.926.508-5.094 2.576-8.619 6.163-10.463 4.857-2.5 10.967-1.214 13.75.5C78.09 59.45 91.79 52.895 92.365 52.61l.05-.024c-1.827 6.96-7.926 7.362-15.4 7.846-3.468.224-7.053.456-10.393 1.421zM54.45 39.652c1.69-.621 3.41-.885 5.088-.885 3.83 0 7.446 1.374 9.989 3.024 10.346 6.655 17.205 8.452 21.092 8.805-1.957.78-8.09 2.805-15.878 1.36.342-2.685-1.448-5.186-4.085-5.643-2.071-.36-4.057.65-5.08 2.384a34.586 34.586 0 01-1.766-1.01c-3.824-2.352-10.79-3.358-16.166-.593-.719.37-1.478.85-2.23 1.46 2.198-4.508 5.224-7.499 9.036-8.902zm-5.193-.634c-1.726 0-3.129-1.433-3.129-3.194 0-1.76 1.403-3.194 3.129-3.194 1.725 0 3.128 1.433 3.128 3.194s-1.403 3.194-3.128 3.194zm8.07 73.085c-5.608-3.166-11.029-6.23-15.64-11.575 6.498-6.872 4.26-11.586 1.682-17.013-2.253-4.746-4.957-10.444-2.894-19.805a20.07 20.07 0 001.82 5.23c3.29 6.436 10.186 11.57 19.424 14.46 6.088 2.431 10.27 5.624 12.43 9.49 3.183 5.7 4.114 16.883-.798 25.59a43.916 43.916 0 00-2.931 2.413c-4.143-3.739-8.683-6.301-13.093-8.79zm58.129-88.727l-3.303 1.23c-.33.122-8.213 2.924-18.877-4.528-7.262-5.076-15.143-7.869-22.79-8.077L70.41 12l-.067.002c-7.646.208-15.527 3.001-22.79 8.077-10.661 7.45-18.548 4.65-18.857 4.534l-3.342-1.308-.053 3.652c-.027 1.964-.64 48.22 3.73 60.878 6.057 17.546 16.133 23.233 25.877 28.734 4.96 2.8 9.646 5.444 13.744 9.628L70.42 128l1.767-1.803c4.098-4.184 8.781-6.827 13.74-9.627 9.742-5.501 19.814-11.188 25.872-28.735 4.37-12.658 3.757-58.914 3.73-60.878l-.073-3.58z"/>
    </g>
</svg>
