<svg xmlns="http://www.w3.org/2000/svg" width="140" height="140" viewBox="0 0 140 140">
    <g fill="none" fill-rule="evenodd">
        <path fill="#265CAA" d="M125.495 14.1l-3.52.47c-.279.039-27.922 3.51-50.3-13.023L69.579 0l-1.914 1.769c-18.185 16.82-49.6 12.843-49.916 12.802l-3.49-.472-.085 3.534c-.058 2.375-1.341 58.357 4.046 73.695 7.448 21.205 20.089 28.093 32.314 34.755 6.235 3.395 12.125 6.604 17.181 11.678L69.946 140l2.231-2.239c5.037-5.051 10.797-8.247 16.897-11.631 12.005-6.661 24.42-13.548 31.883-34.802 5.382-15.324 4.628-71.29 4.594-73.666l-.056-3.562z"/>
        <path fill="#F1BA8C" d="M88.348 109.565c11.32-12.715 13.094-24.73 11.566-35.155 1.676 1.904 3.477 2.908 5.388 2.993.084.004.168.006.251.006 1.562 0 3.092-.65 4.514-1.877-.456 4.452-1.064 8.174-1.879 10.513-4.624 13.287-11.87 18.9-19.84 23.52zm-17.934 11.333c-4.248-3.787-8.97-6.374-13.556-8.887-6.661-3.651-13.067-7.164-18.193-14.153 5.786 3.13 11.699 4.325 17.22 4.324 8.608 0 16.26-2.882 20.977-5.774 12.045-7.385 17.572-20.678 17.593-33.047.408 1.15.801 2.325 1.168 3.523l-.022.011.085.197c4 13.227 4.57 29.39-15.645 47.108-3.302 1.895-6.586 3.987-9.627 6.698zm-4.046-83.23l2.817 6.142c-.22-.083-.436-.159-.639-.227-.257-.086-.511-.17-.753-.277-3.419-1.515-8.35-1.184-11.414-.76l2.33-3.913c1.269-.31 4.79-1.083 7.659-.965zm9.189 56.559c-7.994 4.901-24.995 9.766-39.99-1.359-1.062-2.025-2.043-4.282-2.927-6.823-2.054-5.9-2.814-20.54-3.062-33.79l9.118-8.181c-1.388 8.64-.849 16.275 1.611 22.74 3.07 8.066 8.257 12.06 12.068 13.992 8.182 4.147 17.7 2.584 23.142-3.8 7.757-9.1 2.768-19.624.637-24.117-.268-.564-.49-1.03-.63-1.383a21.257 21.257 0 0 0-1.544-3.13l.062-.03-4.215-9.189 1.937 1.911 4.099-4.258-7.07.092-.195-.426 2.232-4.38 12.047 3.292c2.38 5.205 5.52 12.37 6.603 14.85l.192.567c.268.79.568 1.607.883 2.437 3.963 13.613-.34 31.998-14.998 40.985zm-46-64.689c2.885.196 7.747.334 13.444-.279 11.136-1.197 20.557-4.786 27.413-10.42 6.856 5.634 16.277 9.223 27.412 10.42a78.45 78.45 0 0 0 13.446.28c.11 7.16.286 26.937-.824 41.672-1.573 2.403-3.36 3.719-5.037 3.645-2.349-.104-4.835-2.885-6.998-7.828l-.405-.927c-1.113-3.664-2.459-7.054-3.674-10.116a240.066 240.066 0 0 1-1.4-3.583 34.137 34.137 0 0 0-.71-2.172 50.89 50.89 0 0 0-.397-.923l-.183-.538-.045.016c-1.334-3.06-4.513-10.283-6.685-15.01l-.247-.539-15.145-4.139-3.066 6.02c-3.92-.152-8.67 1.117-8.883 1.176l-.49.133-5.808 9.752 2.88-.656c.079-.017 8.213-1.835 12.629.121.314.139.639.25.969.36.439.148.854.287 1.194.505 1.642 1.05 3.108 3.108 4.24 5.951.156.391.4.909.697 1.533 2.078 4.386 6.405 13.512-.274 21.347-4.687 5.5-12.956 6.811-20.107 3.187-13.148-6.662-14.637-23.799-11.646-37.615l.828-3.823-13.16 11.806c-.104-8.24-.028-15.567.032-19.356zm86.632-5.694l-2.783.377c-.261.034-26.285 3.371-41.285-10.628L70.414 12l-1.708 1.593C53.744 27.558 27.68 24.256 27.423 24.221l-2.784-.377-.068 2.844c-.046 1.968-1.101 48.353 3.318 61.052 6.105 17.541 16.51 23.243 26.572 28.757 5.147 2.82 10.008 5.483 14.172 9.7L70.414 128l1.78-1.804c4.166-4.216 9.026-6.879 14.173-9.7 10.062-5.513 20.467-11.215 26.571-28.756 4.421-12.699 3.366-59.084 3.32-61.052l-.069-2.844z"/>
    </g>
</svg>
