<svg width="900" height="900" viewBox="0 0 900 900" fill="none" xmlns="http://www.w3.org/2000/svg">
<g clip-path="url(#clip0)">
<path d="M477.012 160.078C476.565 160.081 476.108 160.085 475.641 160.088C459.807 160.312 439.342 164.432 433.512 176.578C432.994 177.658 432.714 179.009 432.656 180.578C432.039 197.182 456.189 238.165 484.512 239.078C511.758 239.957 523.168 220.752 523.156 197.078C523.154 193.816 522.936 190.469 522.512 187.078C522.218 184.723 521.637 182.561 520.817 180.578C513.84 163.699 489.54 159.78 477.012 160.078Z" fill="black" stroke="black" stroke-width="2"/>
<path d="M358.012 242.078C366.345 242.578 387.012 237.878 403.012 215.079C415.158 197.77 416.931 186.474 415.768 180.578C415.399 178.708 414.734 177.381 414.012 176.578C407.72 165.711 392.705 162.205 380.332 161.637C375.698 161.774 371.382 161.921 367.512 162.078C343.52 163.051 332.142 174.382 327.893 183.078C326.9 185.111 326.296 187 326.012 188.578H318.512L317.012 189.578C316.135 190.036 314.394 191.065 314.446 191.515L314.512 192.078C313.712 192.878 314.845 194.745 315.512 195.578H318.512H326.012C325.195 203.656 325.77 210.428 327.289 216.078C332.466 235.33 348.606 241.563 358.012 242.078Z" fill="black" stroke="black" stroke-width="2"/>
<path d="M537.012 195.578L538.012 191.078V188.578C538.012 187.578 537.212 185.878 534.012 187.078C532.179 171.745 528.712 140.078 529.512 136.078C530.512 131.078 528.512 102.078 516.012 97.0785C521.512 85.4118 523.812 58.7785 489.012 45.5785C487.512 33.7451 471.612 10.4785 420.012 12.0785C355.512 14.0785 284.012 111.578 285.512 130.578C287.012 149.578 298.512 164.078 312.012 170.578L314.446 191.515C314.394 191.065 316.135 190.036 317.012 189.578L318.512 188.578H326.012C326.296 187 326.9 185.111 327.893 183.078C327.774 179.078 334.512 167.078 338.512 158.078C342.512 149.078 340.512 146.578 343.012 134.578C345.012 124.978 349.845 115.578 352.012 112.078C358.345 100.912 382.612 78.0784 429.012 76.0784C487.012 73.5784 499.012 100.078 503.012 106.078C507.012 112.078 506.512 127.578 505.512 130.578C504.512 133.578 516.012 155.078 518.512 156.578C520.512 157.778 520.882 173.078 520.817 180.578C521.637 182.561 522.218 184.723 522.512 187.078C522.936 190.469 523.154 193.816 523.156 197.078C526.871 197.078 530.275 217.078 531.512 227.078C529.512 205.878 534.345 197.245 537.012 195.578Z" fill="black" stroke="black" stroke-width="2"/>
<path d="M314.512 192.078L310.512 195.578C309.012 196.079 308.512 200.679 318.512 215.079C320.385 215.912 324.507 221.478 326.012 237.078L327.289 216.078C325.77 210.428 325.195 203.656 326.012 195.578H318.512H315.512C314.845 194.745 313.712 192.878 314.512 192.078Z" fill="black" stroke="black" stroke-width="2"/>
<path d="M465.012 484.79C461.412 486.96 434.904 490.886 422.1 492.578C415.476 499.496 408.124 507.983 401.512 515.894C411.345 523.289 431.212 540.978 432.012 552.578C440.179 548.745 459.412 543.378 471.012 552.578C476.179 541.307 488.312 515.645 495.512 503.171L465.012 484.79Z" fill="black" stroke="black" stroke-width="2"/>
<path d="M471.012 552.578C459.412 543.378 440.179 548.745 432.012 552.578C425.179 581.912 413.112 663.678 419.512 756.078L485.012 871.578L516.012 765.578C514.012 711.047 502.212 592.104 471.012 552.578Z" fill="black" stroke="black" stroke-width="2"/>
<path d="M654.512 669.578L634.012 643.078L581.308 692.078C599.198 689.547 632.903 683.511 658.512 675.521L654.512 669.578Z" fill="black" stroke="black" stroke-width="2"/>
<path d="M353.012 332.079C353.998 341.406 355.487 356.014 356.589 368.078L353.012 332.079ZM367.512 162.078C371.382 161.921 375.698 161.774 380.332 161.637L367.512 162.078ZM367.512 162.078C370.885 161.651 375.399 161.41 380.332 161.637L367.512 162.078ZM477.012 160.078C476.565 160.081 476.108 160.085 475.641 160.088L477.012 160.078ZM477.012 160.078C476.559 160.078 476.102 160.082 475.641 160.088L477.012 160.078ZM437.512 479.078C433.787 481.074 428.258 486.148 422.1 492.578L437.512 479.078ZM514.012 401.078C513.643 392.873 513.138 381.465 512.647 370.078L514.012 401.078ZM514.012 401.078C518.412 381.878 514.935 372.412 512.647 370.078L514.012 401.078ZM511.012 327.971C511.012 330.669 511.569 344.678 512.241 360.578L511.012 327.971ZM512.241 360.578C512.366 363.521 512.495 366.528 512.624 369.541C512.632 369.72 512.639 369.899 512.647 370.078L512.624 369.541L512.241 360.578ZM422.1 492.578C415.476 499.496 408.124 507.983 401.512 515.894L422.1 492.578ZM471.012 552.578C476.179 541.307 488.312 515.645 495.512 503.171L471.012 552.578ZM581.308 692.078C580.174 696.414 578.983 700.749 577.734 705.078L581.308 692.078ZM683.012 665.578C676.924 669.121 668.31 672.464 658.512 675.521L683.012 665.578ZM475.641 160.088C454.104 160.245 410.49 160.74 380.332 161.637L475.641 160.088Z" fill="white" stroke="black" stroke-width="2"/>
<path d="M508.512 412.578C488.512 450.178 468.179 474.578 460.512 482.078L465.012 484.79L495.512 503.171L536.012 527.578C537.345 528.578 540.012 529.678 540.012 526.078C540.012 521.578 540.012 457.078 534.012 429.078C533.179 422.078 530.412 404.678 526.012 391.078C520.512 374.078 517.971 368.078 512.241 360.578L512.624 369.541L512.647 370.078C514.935 372.412 518.412 381.878 514.012 401.078C511.212 407.878 509.179 411.578 508.512 412.578Z" fill="white" stroke="black" stroke-width="2"/>
<path d="M437.512 479.078C372.012 426.078 357.512 393.078 358.012 388.578C358.197 386.916 357.535 378.434 356.589 368.078C353.732 376.231 350.037 388.273 347.007 401.078C342.232 421.257 339.107 443.332 343.512 455.078C352.512 479.078 376.012 540.078 377.512 541.078C378.012 541.912 379.512 542.978 381.512 540.578C382.631 539.235 391.168 528.27 401.512 515.894C408.124 507.983 415.476 499.496 422.1 492.578C428.258 486.148 433.787 481.074 437.512 479.078Z" fill="white" stroke="black" stroke-width="2"/>
<path d="M401.512 515.894C391.168 528.27 382.631 539.235 381.512 540.578C379.512 542.978 378.012 541.912 377.512 541.078C376.012 540.078 352.512 479.078 343.512 455.078C339.107 443.332 342.232 421.257 347.007 401.078L331.012 412.578C328.845 418.912 325.812 438.378 331.012 465.578C337.512 499.578 374.012 688.078 419.512 756.078C413.112 663.678 425.179 581.912 432.012 552.578C431.212 540.978 411.345 523.289 401.512 515.894Z" fill="white" stroke="black" stroke-width="2"/>
<path d="M540.012 526.078C540.012 529.678 537.345 528.578 536.012 527.578L495.512 503.171L471.012 552.578C502.212 592.104 514.012 711.047 516.012 765.578C544.812 680.778 544.012 570.578 540.012 526.078Z" fill="white" stroke="black" stroke-width="2"/>
<path d="M460.512 482.078L437.512 479.078L422.1 492.578C434.904 490.886 461.412 486.96 465.012 484.79L460.512 482.078Z" fill="white" stroke="black" stroke-width="2"/>
<path d="M353.012 332.079C353.998 341.406 355.487 356.014 356.589 368.078L353.012 332.079ZM511.012 327.971C511.012 330.669 511.569 344.678 512.241 360.578L511.012 327.971ZM356.589 368.078C353.732 376.231 350.037 388.273 347.007 401.078L356.589 368.078ZM367.512 162.078C371.382 161.921 375.698 161.774 380.332 161.637L367.512 162.078ZM367.512 162.078C370.885 161.651 375.399 161.41 380.332 161.637L367.512 162.078ZM380.332 161.637C410.49 160.74 454.104 160.245 475.641 160.088L380.332 161.637ZM477.012 160.078C476.565 160.081 476.108 160.085 475.641 160.088L477.012 160.078ZM477.012 160.078C476.559 160.078 476.102 160.082 475.641 160.088L477.012 160.078ZM437.512 479.078C433.787 481.074 428.258 486.148 422.1 492.578L437.512 479.078ZM422.1 492.578C415.476 499.496 408.124 507.983 401.512 515.894L422.1 492.578ZM514.012 401.078C513.643 392.873 513.138 381.465 512.647 370.078L514.012 401.078ZM514.012 401.078C518.412 381.878 514.935 372.412 512.647 370.078L514.012 401.078ZM512.647 370.078C512.639 369.899 512.632 369.72 512.624 369.541L512.647 370.078ZM512.241 360.578C512.366 363.521 512.495 366.528 512.624 369.541L512.241 360.578ZM581.308 692.078C580.174 696.414 578.983 700.749 577.734 705.078L581.308 692.078Z" fill="white"/>
<path d="M356.589 368.078C355.487 356.014 353.998 341.406 353.012 332.079L356.589 368.078ZM356.589 368.078C353.732 376.231 350.037 388.273 347.007 401.078L356.589 368.078ZM512.241 360.578C511.569 344.678 511.012 330.669 511.012 327.971L512.241 360.578ZM512.241 360.578C512.366 363.521 512.495 366.528 512.624 369.541M512.241 360.578L512.624 369.541M367.512 162.078C371.382 161.921 375.698 161.774 380.332 161.637M367.512 162.078L380.332 161.637M367.512 162.078C370.885 161.651 375.399 161.41 380.332 161.637M380.332 161.637C410.49 160.74 454.104 160.245 475.641 160.088M380.332 161.637L475.641 160.088M475.641 160.088C476.108 160.085 476.565 160.081 477.012 160.078M475.641 160.088L477.012 160.078M475.641 160.088C476.102 160.082 476.559 160.078 477.012 160.078M422.1 492.578C428.258 486.148 433.787 481.074 437.512 479.078L422.1 492.578ZM422.1 492.578C415.476 499.496 408.124 507.983 401.512 515.894L422.1 492.578ZM514.012 401.078C513.643 392.873 513.138 381.465 512.647 370.078M514.012 401.078L512.647 370.078M514.012 401.078C518.412 381.878 514.935 372.412 512.647 370.078M512.647 370.078C512.639 369.899 512.632 369.72 512.624 369.541M512.647 370.078L512.624 369.541M581.308 692.078C580.174 696.414 578.983 700.749 577.734 705.078L581.308 692.078Z" stroke="black" stroke-width="2"/>
<path d="M356.589 368.078C346.563 370.745 324.412 381.678 316.012 404.078C311.345 408.245 300.912 417.578 296.512 421.578C292.512 428.886 283.412 451.76 279.012 484.79L296.512 492.578L275.512 513.578C294.679 610.412 363.412 817.578 485.012 871.578L419.512 756.078C374.012 688.078 337.512 499.578 331.012 465.578C325.812 438.378 328.845 418.912 331.012 412.578L347.007 401.078C350.037 388.273 353.732 376.231 356.589 368.078Z" fill="#384E64" stroke="black" stroke-width="2"/>
<path d="M296.512 421.578C291.012 426.578 217.012 453.578 132.512 499.578C123.012 502.912 106.312 522.678 115.512 575.078C115.845 578.412 114.412 589.478 106.012 607.078C95.5119 629.078 96.5119 653.078 106.012 666.578C93.5119 717.412 69.8118 825.778 75.0118 852.578C75.012 864.578 54.0119 871.078 70.0118 903.578H206.512C218.512 882.578 208.012 865.578 211.012 831.078L221.512 817.578C223.179 829.078 227.512 852.578 230.512 871.578C229.679 879.578 228.512 897.178 230.512 903.578H684.012L676.512 852.578C676.674 839.29 676.899 813.079 676.544 811.64C676.533 811.619 676.523 811.599 676.512 811.578C676.523 811.578 676.534 811.599 676.544 811.64C684.996 828.157 678.543 859.618 703.012 891.578C704.679 893.245 707.612 897.978 706.012 903.578H836.512C837.179 901.245 836.912 894.378 830.512 885.578C831.012 878.412 830.512 864.078 826.512 859.078C828.679 851.578 830.012 834.578 818.512 824.078C818.512 819.078 822.112 809.278 818.512 796.078C814.912 782.878 805.345 729.912 801.012 705.078C793.679 683.745 778.812 634.578 774.012 606.578C775.345 595.578 775.512 572.078 761.512 552.578C763.012 548.412 764.012 536.878 756.012 524.078L755.512 513.078C747.012 491.745 734.512 458.078 732.012 445.078C731.157 440.632 719.512 429.078 712.512 431.078L558.512 389.578C566.679 400.912 583.812 427.078 587.012 441.078L574.512 445.078L597.012 461.578C603.878 512.25 604.796 602.288 581.308 692.078L634.012 643.078L654.512 669.578C664.112 665.978 677.512 665.412 683.012 665.578L679.512 679.078C661.512 689.878 604.16 700.912 577.734 705.078C560.254 765.628 531.241 825.193 485.012 871.578C363.412 817.578 294.679 610.412 275.512 513.578L296.512 492.578L279.012 484.79C283.412 451.76 292.512 428.886 296.512 421.578Z" fill="#3F576F"/>
<path d="M676.544 811.64C676.899 813.079 676.674 839.29 676.512 852.578L684.012 903.578H230.512C228.512 897.178 229.679 879.578 230.512 871.578C227.512 852.578 223.179 829.078 221.512 817.578L211.012 831.078C208.012 865.578 218.512 882.578 206.512 903.578H70.0118C54.0119 871.078 75.012 864.578 75.0118 852.578C69.8118 825.778 93.5119 717.412 106.012 666.578C96.5119 653.078 95.5119 629.078 106.012 607.078C114.412 589.478 115.845 578.412 115.512 575.078C106.312 522.678 123.012 502.912 132.512 499.578C217.012 453.578 291.012 426.578 296.512 421.578C292.512 428.886 283.412 451.76 279.012 484.79L296.512 492.578L275.512 513.578C294.679 610.412 363.412 817.578 485.012 871.578C531.241 825.193 560.254 765.628 577.734 705.078C604.16 700.912 661.512 689.878 679.512 679.078L683.012 665.578C677.512 665.412 664.112 665.978 654.512 669.578L634.012 643.078L581.308 692.078C604.796 602.288 603.878 512.25 597.012 461.578L574.512 445.078L587.012 441.078C583.812 427.078 566.679 400.912 558.512 389.578L712.512 431.078C719.512 429.078 731.157 440.632 732.012 445.078C734.512 458.078 747.012 491.745 755.512 513.078L756.012 524.078C764.012 536.878 763.012 548.412 761.512 552.578C775.512 572.078 775.345 595.578 774.012 606.578C778.812 634.578 793.679 683.745 801.012 705.078C805.345 729.912 814.912 782.878 818.512 796.078C822.112 809.278 818.512 819.078 818.512 824.078C830.012 834.578 828.679 851.578 826.512 859.078C830.512 864.078 831.012 878.412 830.512 885.578C836.912 894.378 837.179 901.245 836.512 903.578H706.012C707.612 897.978 704.679 893.245 703.012 891.578C678.543 859.618 684.996 828.157 676.544 811.64ZM676.544 811.64C676.533 811.619 676.523 811.599 676.512 811.578C676.523 811.578 676.534 811.599 676.544 811.64Z" stroke="black" stroke-width="2"/>
<path d="M512.241 360.578C517.971 368.078 520.512 374.078 526.012 391.078C530.412 404.678 533.179 422.078 534.012 429.078C540.012 457.078 540.012 521.578 540.012 526.078C544.012 570.578 544.812 680.778 516.012 765.578L485.012 871.578C531.241 825.193 560.254 765.628 577.734 705.078L581.308 692.078C604.796 602.288 603.878 512.25 597.012 461.578L574.512 445.078L587.012 441.078C583.812 427.078 566.679 400.912 558.512 389.578C551.012 384.745 535.112 374.878 531.512 374.078C526.665 369.078 516.025 359.378 512.241 360.578Z" fill="#384E64" stroke="black" stroke-width="2"/>
<path d="M658.512 675.521C632.903 683.511 599.198 689.547 581.308 692.078C580.174 696.414 578.983 700.749 577.734 705.078C604.16 700.912 661.512 689.878 679.512 679.078L683.012 665.578C676.924 669.121 668.31 672.464 658.512 675.521Z" fill="#384E64" stroke="black" stroke-width="2"/>
<path d="M683.012 665.578C677.512 665.412 664.112 665.978 654.512 669.578L658.512 675.521C668.31 672.464 676.924 669.121 683.012 665.578Z" fill="#3F576F" stroke="black" stroke-width="2"/>
<path d="M353.012 332.079C353.998 341.406 355.487 356.014 356.589 368.078L353.012 332.079ZM511.012 327.971C511.012 330.669 511.569 344.678 512.241 360.578L511.012 327.971ZM512.241 360.578C512.366 363.521 512.495 366.528 512.624 369.541L512.241 360.578ZM367.512 162.078C371.382 161.921 375.698 161.774 380.332 161.637L367.512 162.078ZM367.512 162.078C370.885 161.651 375.399 161.41 380.332 161.637L367.512 162.078ZM380.332 161.637C410.49 160.74 454.104 160.245 475.641 160.088L475.227 160.095L380.332 161.637ZM475.641 160.088C476.108 160.085 476.565 160.081 477.012 160.078L475.641 160.088ZM475.641 160.088C476.102 160.082 476.559 160.078 477.012 160.078L475.641 160.088ZM512.647 370.078C512.643 369.989 512.639 369.899 512.635 369.81C512.632 369.72 512.628 369.631 512.624 369.541L512.635 369.81L512.647 370.078Z" fill="#E4BFAA"/>
<path d="M318.512 215.079C314.679 212.079 306.512 206.479 304.512 208.079C302.012 210.079 289.012 213.579 298.012 248.079C300.345 252.079 305.512 265.179 307.512 285.579C310.012 311.079 339.512 303.579 337.512 294.579C335.512 285.579 346.512 325.079 353.012 332.079C359.512 339.079 368.512 354.079 402.512 363.579C429.712 371.179 464.845 359.745 479.012 353.079C487.056 348.833 501.076 339.54 511.012 327.971C515.899 322.281 519.798 316.04 521.512 309.579C523.345 302.912 526.812 288.879 526.012 286.079C527.845 288.745 533.512 293.179 541.512 289.579C549.512 285.979 553.179 274.079 554.012 268.579C554.845 253.079 556.712 221.579 557.512 219.579C558.512 217.079 556.012 188.079 544.012 192.079C543.012 191.912 540.212 192.378 537.012 195.578C534.345 197.245 529.512 205.878 531.512 227.078C530.275 217.078 526.871 197.078 523.156 197.078C523.168 220.752 511.758 239.957 484.512 239.078C456.189 238.165 432.039 197.182 432.656 180.578C432.714 179.009 432.994 177.658 433.512 176.578C430.345 175.412 422.012 173.778 414.012 176.578C414.734 177.381 415.399 178.708 415.768 180.578C416.931 186.474 415.158 197.77 403.012 215.079C387.012 237.878 366.345 242.578 358.012 242.078C348.606 241.563 332.466 235.33 327.289 216.078L326.012 237.078C324.507 221.478 320.385 215.912 318.512 215.079Z" fill="#E4BFAA"/>
<path d="M327.893 183.078C332.142 174.382 343.52 163.051 367.512 162.078C370.885 161.651 375.399 161.41 380.332 161.637C410.49 160.74 454.104 160.245 475.641 160.088C476.102 160.082 476.559 160.078 477.012 160.078C489.54 159.78 513.84 163.699 520.817 180.578C520.882 173.078 520.512 157.778 518.512 156.578C516.012 155.078 504.512 133.578 505.512 130.578C506.512 127.578 507.012 112.078 503.012 106.078C499.012 100.078 487.012 73.5784 429.012 76.0784C382.612 78.0784 358.345 100.912 352.012 112.078C349.845 115.578 345.012 124.978 343.012 134.578C340.512 146.578 342.512 149.078 338.512 158.078C334.512 167.078 327.774 179.078 327.893 183.078Z" fill="#E4BFAA"/>
<path d="M402.512 363.579C368.512 354.079 359.512 339.079 353.012 332.079C353.998 341.406 355.487 356.014 356.589 368.078C357.535 378.434 358.197 386.916 358.012 388.578C357.512 393.078 372.012 426.078 437.512 479.078L460.512 482.078C468.179 474.578 488.512 450.178 508.512 412.578C509.179 411.578 511.212 407.878 514.012 401.078L512.647 370.078L512.635 369.81L512.624 369.541L512.241 360.578C511.569 344.678 511.012 330.669 511.012 327.971C501.076 339.54 487.056 348.833 479.012 353.079C464.845 359.745 429.712 371.179 402.512 363.579Z" fill="#E4BFAA"/>
<path d="M380.332 161.637C392.705 162.205 407.72 165.711 414.012 176.578C422.012 173.778 430.345 175.412 433.512 176.578C439.291 164.538 459.452 160.384 475.227 160.095L380.332 161.637Z" fill="#E4BFAA"/>
<path d="M353.012 332.079C346.512 325.079 335.512 285.579 337.512 294.579C339.512 303.579 310.012 311.079 307.512 285.579C305.512 265.179 300.345 252.079 298.012 248.079C289.012 213.579 302.012 210.079 304.512 208.079C306.512 206.479 314.679 212.079 318.512 215.079C320.385 215.912 324.507 221.478 326.012 237.078L327.289 216.078M353.012 332.079C359.512 339.079 368.512 354.079 402.512 363.579C429.712 371.179 464.845 359.745 479.012 353.079C487.056 348.833 501.076 339.54 511.012 327.971M353.012 332.079C353.998 341.406 355.487 356.014 356.589 368.078M353.012 332.079L356.589 368.078M327.289 216.078C325.77 210.428 325.195 203.656 326.012 195.578M327.289 216.078C332.466 235.33 348.606 241.563 358.012 242.078C366.345 242.578 387.012 237.878 403.012 215.079C415.158 197.77 416.931 186.474 415.768 180.578C415.399 178.708 414.734 177.381 414.012 176.578M511.012 327.971C515.899 322.281 519.798 316.04 521.512 309.579C523.345 302.912 526.812 288.879 526.012 286.079C527.845 288.745 533.512 293.179 541.512 289.579C549.512 285.979 553.179 274.079 554.012 268.579C554.845 253.079 556.712 221.579 557.512 219.579C558.512 217.079 556.012 188.079 544.012 192.079C543.012 191.912 540.212 192.378 537.012 195.578C534.345 197.245 529.512 205.878 531.512 227.078C530.275 217.078 526.871 197.078 523.156 197.078M511.012 327.971C511.012 330.669 511.569 344.678 512.241 360.578M511.012 327.971L512.241 360.578M356.589 368.078C357.535 378.434 358.197 386.916 358.012 388.578C357.512 393.078 372.012 426.078 437.512 479.078L460.512 482.078C468.179 474.578 488.512 450.178 508.512 412.578C509.179 411.578 511.212 407.878 514.012 401.078L512.647 370.078M414.012 176.578C407.72 165.711 392.705 162.205 380.332 161.637M414.012 176.578C422.012 173.778 430.345 175.412 433.512 176.578M512.241 360.578L512.624 369.541M512.241 360.578C512.366 363.521 512.495 366.528 512.624 369.541M326.012 188.578C326.296 187 326.9 185.111 327.893 183.078M327.893 183.078C332.142 174.382 343.52 163.051 367.512 162.078M327.893 183.078C327.774 179.078 334.512 167.078 338.512 158.078C342.512 149.078 340.512 146.578 343.012 134.578C345.012 124.978 349.845 115.578 352.012 112.078C358.345 100.912 382.612 78.0784 429.012 76.0784C487.012 73.5784 499.012 100.078 503.012 106.078C507.012 112.078 506.512 127.578 505.512 130.578C504.512 133.578 516.012 155.078 518.512 156.578C520.512 157.778 520.882 173.078 520.817 180.578M380.332 161.637C375.698 161.774 371.382 161.921 367.512 162.078M380.332 161.637L367.512 162.078M380.332 161.637C375.399 161.41 370.885 161.651 367.512 162.078M380.332 161.637C410.49 160.74 454.104 160.245 475.641 160.088M380.332 161.637L475.227 160.095M433.512 176.578C432.994 177.658 432.714 179.009 432.656 180.578C432.039 197.182 456.189 238.165 484.512 239.078C511.758 239.957 523.168 220.752 523.156 197.078M433.512 176.578C439.291 164.538 459.452 160.384 475.227 160.095M523.156 197.078C523.154 193.816 522.936 190.469 522.512 187.078C522.218 184.723 521.637 182.561 520.817 180.578M512.624 369.541L512.635 369.81M512.624 369.541C512.628 369.631 512.632 369.72 512.635 369.81M520.817 180.578C513.84 163.699 489.54 159.78 477.012 160.078M475.641 160.088C476.108 160.085 476.565 160.081 477.012 160.078M475.641 160.088L477.012 160.078M475.641 160.088C476.102 160.082 476.559 160.078 477.012 160.078M475.641 160.088L475.227 160.095M475.641 160.088C475.503 160.09 475.365 160.092 475.227 160.095M512.647 370.078L512.635 369.81M512.647 370.078C512.643 369.989 512.639 369.899 512.635 369.81" stroke="black"/>
</g>
<defs>
<clipPath id="clip0">
<rect width="900" height="900" fill="white"/>
</clipPath>
</defs>
</svg>
